<?xml version="1.0" encoding="UTF-8"?><svg xmlns="http://www.w3.org/2000/svg" viewBox="0 0 1366 768"><g id="a"><path d="m684.79,208.33c35.55-75.95,133.72-69.4,248.19-41.39,6.03,1.47,10.27,6.89,10.27,13.09v393.47c-5.5,3.5-94.49-11.74-115.5-12.5-139-5-118,56-143.5,60.5,0,0-10.65-3.03-16.5-13.5-19-34-39.58-47.69-104-49-49.36-.77-106.46,10.95-129.99,16.35-5.64,1.29-11.01-2.99-11.01-8.77V181.25c0-8.5,5.79-15.9,14.04-17.94,29.97-7.43,101.51-22.81,150.96-14.31,69.24,8.2,92.42,51.68,95.99,59.34.21.45.84.44,1.05-.01Z" style="fill:#966919;"/></g><g id="b"><path d="m824.05,241.39c-3.14-2.68-7.29-3.86-11.38-3.21l-178.97,28.26c-6.87,1.08-11.92,7-11.92,13.96v146h-28.26c-31.16,0-56.52,23.24-56.52,51.81s25.35,51.81,56.52,51.81,56.52-23.24,56.52-51.81v-129.22l150.71-23.8v77.66h-28.26c-31.16,0-56.52,23.24-56.52,51.81s25.35,51.81,56.52,51.81,56.52-23.24,56.52-51.81v-202.52c0-4.13-1.81-8.06-4.95-10.74Z" style="fill:#fff;"/></g></svg>